# xmcd CD database file
#
# Track frame offsets:
#	150
#	18846
#	36079
#	54604
#	70426
#	101459
#	117031
#	129893
#	156781
#	174986
#	192014
#
# Disc length: 2744 seconds
#
# Revision: 10
# Processed by: cddbd v1.5.2PL0 Copyright (c) Steve Scherf et al.
# Submitted via: CDex 1.50Beta7
#
DISCID=830ab60b
DTITLE=Chris de Burgh - This Way Up
DYEAR=1994
DGENRE=Blues
TTITLE0=This Silent World
TTITLE1=This Is Love
TTITLE2=This Weight On Me
TTITLE3=Here Is Your Paradise
TTITLE4=Oh My Brave Hearts
TTITLE5=Blonde Hair, Blue Jeans
TTITLE6=The Son And The Father
TTITLE7=Up Here In Heaven
TTITLE8=You Are The Reason
TTITLE9=Love's Got A Hold On Me
TTITLE10=The Snows Of New York
EXTD=YEAR: 1994
EXTT0=
EXTT1=
EXTT2=
EXTT3=
EXTT4=
EXTT5=
EXTT6=
EXTT7=
EXTT8=
EXTT9=
EXTT10=
PLAYORDER=
